<?xml version="1.0" encoding="UTF-8" standalone="no"?>
<svg width="800" height="400" xmlns="http://www.w3.org/2000/svg">
  <rect width="800" height="400" fill="#483D8B"/>
  <text x="400" y="180" font-family="Arial, sans-serif" font-size="48" text-anchor="middle" fill="white">投资策略</text>
  <text x="400" y="240" font-family="Arial, sans-serif" font-size="24" text-anchor="middle" fill="white">多元化降低风险</text>
  
  <!-- 多元化资产饼图 -->
  <circle cx="400" cy="300" r="90" fill="none" stroke="white" stroke-width="2"/>
  
  <!-- 饼图分块 -->
  <path d="M400,300 L400,210 A90,90 0 0,1 465,255 Z" fill="#FFD700" opacity="0.8"/>
  <text x="440" y="240" font-family="Arial, sans-serif" font-size="14" fill="white">股票</text>
  
  <path d="M400,300 L465,255 A90,90 0 0,1 450,345 Z" fill="#87CEEB" opacity="0.8"/>
  <text x="470" y="300" font-family="Arial, sans-serif" font-size="14" fill="white">债券</text>
  
  <path d="M400,300 L450,345 A90,90 0 0,1 335,345 Z" fill="#90EE90" opacity="0.8"/>
  <text x="400" y="360" font-family="Arial, sans-serif" font-size="14" fill="white">现金</text>
  
  <path d="M400,300 L335,345 A90,90 0 0,1 325,255 Z" fill="#FFA07A" opacity="0.8"/>
  <text x="330" y="320" font-family="Arial, sans-serif" font-size="14" fill="white">房地产</text>
  
  <path d="M400,300 L325,255 A90,90 0 0,1 400,210 Z" fill="#BA55D3" opacity="0.8"/>
  <text x="350" y="240" font-family="Arial, sans-serif" font-size="14" fill="white">商品</text>
</svg> 