<?xml version="1.0" encoding="UTF-8" standalone="no"?>
<svg width="800" height="400" xmlns="http://www.w3.org/2000/svg">
  <rect width="800" height="400" fill="#2E8B57"/>
  <text x="400" y="180" font-family="Arial, sans-serif" font-size="48" text-anchor="middle" fill="white">市场分析</text>
  <text x="400" y="240" font-family="Arial, sans-serif" font-size="24" text-anchor="middle" fill="white">全球市场最新趋势</text>
  
  <!-- 市场图表 -->
  <polyline points="100,300 150,280 200,290 250,250 300,230 350,240 400,210 450,180 500,190 550,170 600,140 650,160 700,150" 
            stroke="white" stroke-width="3" fill="none"/>
  
  <!-- 交易量柱状图 -->
  <rect x="100" y="320" width="30" height="30" fill="white" opacity="0.5"/>
  <rect x="150" y="320" width="30" height="40" fill="white" opacity="0.5"/>
  <rect x="200" y="320" width="30" height="20" fill="white" opacity="0.5"/>
  <rect x="250" y="320" width="30" height="50" fill="white" opacity="0.5"/>
  <rect x="300" y="320" width="30" height="30" fill="white" opacity="0.5"/>
  <rect x="350" y="320" width="30" height="25" fill="white" opacity="0.5"/>
  <rect x="400" y="320" width="30" height="45" fill="white" opacity="0.5"/>
  <rect x="450" y="320" width="30" height="55" fill="white" opacity="0.5"/>
  <rect x="500" y="320" width="30" height="35" fill="white" opacity="0.5"/>
  <rect x="550" y="320" width="30" height="40" fill="white" opacity="0.5"/>
  <rect x="600" y="320" width="30" height="60" fill="white" opacity="0.5"/>
  <rect x="650" y="320" width="30" height="25" fill="white" opacity="0.5"/>
  <rect x="700" y="320" width="30" height="50" fill="white" opacity="0.5"/>
</svg> 